<svg width="94" height="24" viewBox="0 0 94 24" fill="none" xmlns="http://www.w3.org/2000/svg">
<path d="M0.517045 18V0.545454H7.40341C8.72159 0.545454 9.84659 0.78125 10.7784 1.25284C11.7159 1.71875 12.429 2.38068 12.9176 3.23864C13.4119 4.09091 13.6591 5.09375 13.6591 6.24716C13.6591 7.40625 13.4091 8.40341 12.9091 9.23864C12.4091 10.0682 11.6847 10.7045 10.7358 11.1477C9.79261 11.5909 8.65057 11.8125 7.30966 11.8125H2.69886V8.84659H6.71307C7.41761 8.84659 8.00284 8.75 8.46875 8.55682C8.93466 8.36364 9.28125 8.07386 9.50852 7.6875C9.74148 7.30114 9.85795 6.82102 9.85795 6.24716C9.85795 5.66761 9.74148 5.17898 9.50852 4.78125C9.28125 4.38352 8.93182 4.08239 8.46023 3.87784C7.99432 3.66761 7.40625 3.5625 6.69602 3.5625H4.20739V18H0.517045ZM9.94318 10.0568L14.2812 18H10.2074L5.96307 10.0568H9.94318ZM24.5938 12.4261V4.90909H28.2244V18H24.7386V15.6222H24.6023C24.3068 16.3892 23.8153 17.0057 23.1278 17.4716C22.446 17.9375 21.6136 18.1705 20.6307 18.1705C19.7557 18.1705 18.9858 17.9716 18.321 17.5739C17.6563 17.1761 17.1364 16.6108 16.7614 15.8778C16.392 15.1449 16.2045 14.267 16.1989 13.2443V4.90909H19.8295V12.5966C19.8352 13.3693 20.0426 13.9801 20.4517 14.429C20.8608 14.8778 21.4091 15.1023 22.0966 15.1023C22.5341 15.1023 22.9432 15.0028 23.3239 14.804C23.7045 14.5994 24.0114 14.2983 24.2443 13.9006C24.483 13.5028 24.5994 13.0114 24.5938 12.4261ZM34.7592 10.4318V18H31.1286V4.90909H34.5888V7.21875H34.7422C35.032 6.45739 35.5178 5.85511 36.1996 5.41193C36.8814 4.96307 37.7081 4.73864 38.6797 4.73864C39.5888 4.73864 40.3814 4.9375 41.0575 5.33523C41.7337 5.73295 42.2592 6.30114 42.6342 7.03977C43.0092 7.77273 43.1967 8.64773 43.1967 9.66477V18H39.5661V10.3125C39.5717 9.51136 39.3672 8.88636 38.9524 8.4375C38.5376 7.98295 37.9666 7.75568 37.2393 7.75568C36.7507 7.75568 36.3189 7.8608 35.9439 8.07102C35.5746 8.28125 35.2848 8.58807 35.0746 8.99148C34.87 9.3892 34.7649 9.86932 34.7592 10.4318ZM51.956 23.1818C50.7798 23.1818 49.7713 23.0199 48.9304 22.696C48.0952 22.3778 47.4304 21.9432 46.9361 21.392C46.4418 20.8409 46.1207 20.2216 45.973 19.5341L49.331 19.0824C49.4332 19.3438 49.5952 19.5881 49.8168 19.8153C50.0384 20.0426 50.331 20.2244 50.6946 20.3608C51.0639 20.5028 51.5128 20.5739 52.0412 20.5739C52.831 20.5739 53.4815 20.3807 53.9929 19.9943C54.5099 19.6136 54.7685 18.9744 54.7685 18.0767V15.6818H54.6151C54.456 16.0455 54.2173 16.3892 53.8991 16.7131C53.581 17.0369 53.1719 17.3011 52.6719 17.5057C52.1719 17.7102 51.5753 17.8125 50.8821 17.8125C49.8991 17.8125 49.0043 17.5852 48.1974 17.1307C47.3963 16.6705 46.7571 15.9687 46.2798 15.0256C45.8082 14.0767 45.5724 12.8778 45.5724 11.429C45.5724 9.94602 45.8139 8.70739 46.2969 7.71307C46.7798 6.71875 47.4219 5.97443 48.223 5.48011C49.0298 4.9858 49.9134 4.73864 50.8736 4.73864C51.6065 4.73864 52.2202 4.86364 52.7145 5.11364C53.2088 5.35795 53.6065 5.66477 53.9077 6.03409C54.2145 6.39773 54.4503 6.75568 54.6151 7.10795H54.7514V4.90909H58.3565V18.1278C58.3565 19.2415 58.0838 20.1733 57.5384 20.9233C56.9929 21.6733 56.2372 22.2358 55.2713 22.6108C54.3111 22.9915 53.206 23.1818 51.956 23.1818ZM52.0327 15.0852C52.6179 15.0852 53.1122 14.9403 53.5156 14.6506C53.9247 14.3551 54.2372 13.9347 54.4531 13.3892C54.6747 12.8381 54.7855 12.179 54.7855 11.4119C54.7855 10.6449 54.6776 9.98011 54.4616 9.41761C54.2457 8.84943 53.9332 8.40909 53.5241 8.09659C53.1151 7.78409 52.6179 7.62784 52.0327 7.62784C51.4361 7.62784 50.9332 7.78977 50.5241 8.11364C50.1151 8.43182 49.8054 8.875 49.5952 9.44318C49.3849 10.0114 49.2798 10.6676 49.2798 11.4119C49.2798 12.1676 49.3849 12.821 49.5952 13.3722C49.8111 13.9176 50.1207 14.3409 50.5241 14.642C50.9332 14.9375 51.4361 15.0852 52.0327 15.0852ZM64.8764 0.545454V18H61.2457V0.545454H64.8764ZM73.7507 18.2557C72.4041 18.2557 71.245 17.983 70.2734 17.4375C69.3075 16.8864 68.5632 16.108 68.0405 15.1023C67.5178 14.0909 67.2564 12.8949 67.2564 11.5142C67.2564 10.1676 67.5178 8.9858 68.0405 7.96875C68.5632 6.9517 69.299 6.15909 70.2479 5.59091C71.2024 5.02273 72.3217 4.73864 73.6058 4.73864C74.4695 4.73864 75.2734 4.87784 76.0178 5.15625C76.7678 5.42898 77.4212 5.84091 77.978 6.39205C78.5405 6.94318 78.978 7.63636 79.2905 8.47159C79.603 9.30114 79.7592 10.2727 79.7592 11.3864V12.3835H68.7053V10.1335H76.3416C76.3416 9.6108 76.228 9.14773 76.0007 8.74432C75.7734 8.34091 75.4581 8.02557 75.0547 7.7983C74.657 7.56534 74.1939 7.44886 73.6655 7.44886C73.1143 7.44886 72.6257 7.5767 72.1996 7.83239C71.7791 8.08239 71.4496 8.42045 71.2109 8.84659C70.9723 9.26705 70.8501 9.7358 70.8445 10.2528V12.392C70.8445 13.0398 70.9638 13.5994 71.2024 14.071C71.4467 14.5426 71.7905 14.9062 72.2337 15.1619C72.6768 15.4176 73.2024 15.5455 73.8104 15.5455C74.2138 15.5455 74.5831 15.4886 74.9183 15.375C75.2536 15.2614 75.5405 15.0909 75.7791 14.8636C76.0178 14.6364 76.1996 14.358 76.3246 14.0284L79.6825 14.25C79.5121 15.0568 79.1626 15.7614 78.6342 16.3636C78.1115 16.9602 77.4354 17.4261 76.6058 17.7614C75.782 18.0909 74.8303 18.2557 73.7507 18.2557ZM84.0185 22.9091C83.5582 22.9091 83.1264 22.8722 82.723 22.7983C82.3253 22.7301 81.9957 22.642 81.7344 22.5341L82.5526 19.8239C82.9787 19.9545 83.3622 20.0256 83.7031 20.0369C84.0497 20.0483 84.348 19.9688 84.598 19.7983C84.8537 19.6278 85.0611 19.3381 85.2202 18.929L85.4332 18.375L80.7372 4.90909H84.5554L87.2656 14.5227H87.402L90.1378 4.90909H93.9815L88.8935 19.4148C88.6491 20.1193 88.3168 20.733 87.8963 21.2557C87.4815 21.7841 86.956 22.1903 86.3196 22.4744C85.6832 22.7642 84.9162 22.9091 84.0185 22.9091Z" fill="#421983"/>
</svg>
